<svg width="34" height="25" viewBox="0 0 34 25" fill="none" xmlns="http://www.w3.org/2000/svg">
<g clip-path="url(#clip0_103_16)">
<path d="M2.74922 11.0286C1.91914 11.8424 1.91914 13.1641 2.74922 13.9779L13.3742 24.3945C14.2043 25.2083 15.5523 25.2083 16.3824 24.3945C17.2125 23.5807 17.2125 22.2591 16.3824 21.4453L9.37656 14.5833L29.75 14.5833C30.9254 14.5833 31.875 13.6523 31.875 12.5C31.875 11.3477 30.9254 10.4167 29.75 10.4167L9.3832 10.4167L16.3758 3.55469C17.2059 2.74089 17.2059 1.41927 16.3758 0.605469C15.5457 -0.208333 14.1977 -0.208333 13.3676 0.605469L2.74258 11.0221L2.74922 11.0286Z" fill="#FF922C"/>
</g>
<defs>
<clipPath id="clip0_103_16">
<rect width="25" height="34" fill="white" transform="matrix(0 1 -1 0 34 0)"/>
</clipPath>
</defs>
</svg>
