<svg width="18" height="23" viewBox="0 0 18 23" fill="none" xmlns="http://www.w3.org/2000/svg">
<path d="M17.6531 3.12595C18.1828 2.46189 18.0984 1.47556 17.4609 0.923806C16.8234 0.372048 15.8766 0.459939 15.3469 1.124L9 9.05857L2.65313 1.124C2.12344 0.459939 1.17657 0.372048 0.539065 0.923806C-0.0984345 1.47556 -0.18281 2.46189 0.346878 3.12595L7.04532 11.5L0.346878 19.874C-0.18281 20.5381 -0.0984345 21.5244 0.539065 22.0761C1.17657 22.6279 2.12344 22.54 2.65313 21.876L9 13.9414L15.3469 21.876C15.8766 22.54 16.8234 22.6279 17.4609 22.0761C18.0984 21.5244 18.1828 20.5381 17.6531 19.874L10.9547 11.5L17.6531 3.12595Z" fill="#FF4635"/>
</svg>
