<svg width="31" height="28" viewBox="0 0 31 28" fill="none" xmlns="http://www.w3.org/2000/svg">
<path d="M22.8807 4.47441L30.3158 11.9096C30.7518 12.3455 31 12.9449 31 13.5625C31 14.1801 30.7518 14.7795 30.3158 15.2154L22.8807 22.6506C22.4932 23.0381 21.9725 23.25 21.4275 23.25C20.2953 23.25 19.375 22.3297 19.375 21.1975V17.4375H11.625C10.5533 17.4375 9.6875 16.5717 9.6875 15.5V11.625C9.6875 10.5533 10.5533 9.6875 11.625 9.6875H19.375V5.92754C19.375 4.79531 20.2953 3.875 21.4275 3.875C21.9725 3.875 22.4932 4.09297 22.8807 4.47441ZM9.6875 3.875H5.8125C4.74082 3.875 3.875 4.74082 3.875 5.8125V21.3125C3.875 22.3842 4.74082 23.25 5.8125 23.25H9.6875C10.7592 23.25 11.625 24.1158 11.625 25.1875C11.625 26.2592 10.7592 27.125 9.6875 27.125H5.8125C2.60352 27.125 0 24.5215 0 21.3125V5.8125C0 2.60352 2.60352 0 5.8125 0H9.6875C10.7592 0 11.625 0.86582 11.625 1.9375C11.625 3.00918 10.7592 3.875 9.6875 3.875Z" fill="#FF922C"/>
</svg>
