<svg width="18" height="20" viewBox="0 0 18 20" fill="none" xmlns="http://www.w3.org/2000/svg">
<g clip-path="url(#clip0_102_306)">
<path d="M8.98551 10C10.3473 10 11.6533 9.47322 12.6162 8.53553C13.5791 7.59785 14.1201 6.32608 14.1201 5C14.1201 3.67392 13.5791 2.40215 12.6162 1.46447C11.6533 0.526784 10.3473 0 8.98551 0C7.62373 0 6.31773 0.526784 5.35481 1.46447C4.39189 2.40215 3.85093 3.67392 3.85093 5C3.85093 6.32608 4.39189 7.59785 5.35481 8.53553C6.31773 9.47322 7.62373 10 8.98551 10ZM7.1523 11.875C3.20109 11.875 0 14.9922 0 18.8398C0 19.4805 0.533514 20 1.19138 20H16.7796C17.4375 20 17.971 19.4805 17.971 18.8398C17.971 14.9922 14.7699 11.875 10.8187 11.875H7.1523Z" fill="white"/>
</g>
<defs>
<clipPath id="clip0_102_306">
<rect width="17.971" height="20" fill="white"/>
</clipPath>
</defs>
</svg>
