<svg viewBox="0 0 108 108" xmlns="http://www.w3.org/2000/svg">
	<g transform="translate(36 34) scale(1.15)">
		<path d="M28.7857 0C27.6786 0 19.9286 2.1875 19.9286 12.0312V19.6875C19.9286 22.1006 21.9145 24.0625 24.3571 24.0625H26.5714V32.8125C26.5714 34.0225 27.5609 35 28.7857 35C30.0105 35 31 34.0225 31 32.8125V24.0625V16.4062V2.1875C31 0.977539 30.0105 0 28.7857 0ZM4.42857 1.09375C4.42857 0.533203 4.00647 0.0683594 3.43906 0.00683594C2.87165 -0.0546875 2.36652 0.314453 2.24196 0.854492L0.145312 10.1719C0.0484375 10.6025 0 11.04 0 11.4775C0 14.6152 2.42879 17.1924 5.53571 17.4727V32.8125C5.53571 34.0225 6.52522 35 7.75 35C8.97478 35 9.96428 34.0225 9.96428 32.8125V17.4727C13.0712 17.1924 15.5 14.6152 15.5 11.4775C15.5 11.04 15.4516 10.6025 15.3547 10.1719L13.258 0.854492C13.1335 0.307617 12.6145 -0.0546875 12.054 0.00683594C11.4935 0.0683594 11.0714 0.533203 11.0714 1.09375V10.2676C11.0714 10.6367 10.767 10.9375 10.3933 10.9375C10.0404 10.9375 9.74978 10.6709 9.71518 10.3223L8.85022 0.998047C8.80179 0.430664 8.32433 0 7.75 0C7.17567 0 6.69821 0.430664 6.64978 0.998047L5.79174 10.3223C5.75714 10.6709 5.46652 10.9375 5.11362 10.9375C4.73996 10.9375 4.43549 10.6367 4.43549 10.2676L4.42857 1.09375ZM7.77076 11.4844H7.75H7.72924L7.75 11.4365L7.77076 11.4844Z" fill="white"/>
	</g>
</svg>